<svg width="200" height="200" viewBox="0 0 200 200" fill="none" xmlns="http://www.w3.org/2000/svg">
<circle cx="100" cy="100" r="100" fill="black"/>
<path d="M27.5692 66.8C29.6359 66.8 31.2426 67.3733 32.3892 68.52C33.5492 69.6533 34.1292 71.28 34.1292 73.4C34.1292 75.52 33.5492 77.1533 32.3892 78.3C31.2426 79.4333 29.6359 80 27.5692 80H22.9092V66.8H27.5692ZM27.5692 78.18C28.9692 78.18 30.0359 77.7667 30.7692 76.94C31.5159 76.1 31.8892 74.92 31.8892 73.4C31.8892 71.88 31.5159 70.7067 30.7692 69.88C30.0359 69.04 28.9692 68.62 27.5692 68.62H25.0492V78.18H27.5692ZM52.7838 66.6C54.0638 66.6 55.1704 66.8733 56.1038 67.42C57.0371 67.9667 57.7571 68.7533 58.2638 69.78C58.7704 70.7933 59.0238 72 59.0238 73.4C59.0238 74.8 58.7704 76.0133 58.2638 77.04C57.7571 78.0533 57.0371 78.8333 56.1038 79.38C55.1704 79.9267 54.0638 80.2 52.7838 80.2C51.5038 80.2 50.3971 79.9267 49.4638 79.38C48.5438 78.8333 47.8304 78.0533 47.3238 77.04C46.8171 76.0133 46.5638 74.8 46.5638 73.4C46.5638 72 46.8171 70.7933 47.3238 69.78C47.8304 68.7533 48.5438 67.9667 49.4638 67.42C50.3971 66.8733 51.5038 66.6 52.7838 66.6ZM52.7838 68.46C51.5438 68.46 50.5704 68.8933 49.8638 69.76C49.1571 70.6133 48.8038 71.8267 48.8038 73.4C48.8038 74.9733 49.1571 76.1933 49.8638 77.06C50.5704 77.9133 51.5438 78.34 52.7838 78.34C54.0371 78.34 55.0171 77.9133 55.7238 77.06C56.4304 76.1933 56.7838 74.9733 56.7838 73.4C56.7838 71.8267 56.4304 70.6133 55.7238 69.76C55.0171 68.8933 54.0371 68.46 52.7838 68.46ZM74.4908 80L70.6108 66.8H72.8708L75.8308 78.14L78.7108 66.8H80.9108L83.8108 78.16L86.7508 66.8H88.9308L85.0708 80H82.5508L80.4508 72.08L79.7908 69.04H79.7708L79.1108 72.08L77.0308 80H74.4908ZM103.584 66.8V80H101.444V66.8H103.584ZM117.499 80V66.8H127.059V68.64H119.639V72.44H125.439V74.24H119.639V78.16H127.339V80H117.499ZM144.874 66.8C146.941 66.8 148.547 67.3733 149.694 68.52C150.854 69.6533 151.434 71.28 151.434 73.4C151.434 75.52 150.854 77.1533 149.694 78.3C148.547 79.4333 146.941 80 144.874 80H140.214V66.8H144.874ZM144.874 78.18C146.274 78.18 147.341 77.7667 148.074 76.94C148.821 76.1 149.194 74.92 149.194 73.4C149.194 71.88 148.821 70.7067 148.074 69.88C147.341 69.04 146.274 68.62 144.874 68.62H142.354V78.18H144.874ZM174.094 78.18V80H163.434V78.26L171.414 68.62H163.614V66.8H173.854V68.54L165.874 78.18H174.094ZM78.6592 86.6C79.8459 86.6 80.8726 86.8267 81.7392 87.28C82.6059 87.72 83.3392 88.3733 83.9392 89.24L82.4992 90.62C81.9926 89.8467 81.4192 89.2933 80.7792 88.96C80.1526 88.6133 79.4059 88.44 78.5392 88.44C77.5659 88.44 76.8592 88.6267 76.4192 89C75.9792 89.3733 75.7592 89.8267 75.7592 90.36C75.7592 90.7733 75.8992 91.1333 76.1792 91.44C76.4726 91.7467 77.0126 91.9867 77.7992 92.16L80.4792 92.76C81.7459 93.0533 82.6459 93.4867 83.1792 94.06C83.7259 94.62 83.9992 95.34 83.9992 96.22C83.9992 97.0333 83.7792 97.74 83.3392 98.34C82.8992 98.9267 82.2859 99.3867 81.4992 99.72C80.7126 100.04 79.7992 100.2 78.7592 100.2C77.3592 100.2 76.1659 99.94 75.1792 99.42C74.1926 98.8867 73.4326 98.2267 72.8992 97.44L74.3792 95.96C74.7926 96.6667 75.3726 97.2467 76.1192 97.7C76.8792 98.14 77.7792 98.36 78.8192 98.36C79.7392 98.36 80.4592 98.2 80.9792 97.88C81.5126 97.5467 81.7792 97.0733 81.7792 96.46C81.7792 96.0867 81.6459 95.7533 81.3792 95.46C81.1259 95.1533 80.6459 94.92 79.9392 94.76L77.0392 94.1C75.8392 93.8467 74.9526 93.4267 74.3792 92.84C73.8059 92.2533 73.5192 91.52 73.5192 90.64C73.5192 89.8933 73.7259 89.2133 74.1392 88.6C74.5526 87.9867 75.1392 87.5 75.8992 87.14C76.6726 86.78 77.5926 86.6 78.6592 86.6ZM99.1313 86.8V100H96.9913V86.8H99.1313ZM113.046 100V86.8H122.606V88.64H115.186V92.44H120.986V94.24H115.186V98.16H122.886V100H122.906C121.933 100.373 121.253 100.74 120.866 101.1C120.479 101.46 120.286 101.82 120.286 102.18C120.286 102.5 120.399 102.747 120.626 102.92C120.853 103.107 121.153 103.2 121.526 103.2C121.686 103.2 121.859 103.18 122.046 103.14C122.246 103.113 122.419 103.053 122.566 102.96L122.926 104.18C122.713 104.313 122.446 104.407 122.126 104.46C121.819 104.527 121.499 104.56 121.166 104.56C120.433 104.56 119.833 104.373 119.366 104C118.899 103.64 118.666 103.147 118.666 102.52C118.666 101.933 118.833 101.44 119.166 101.04C119.513 100.653 120.006 100.307 120.646 100H113.046ZM44.5201 120L40.6401 106.8H42.9001L45.8601 118.14L48.7401 106.8H50.9401L53.8401 118.16L56.7801 106.8H58.9601L55.1001 120H52.5801L50.4801 112.08L49.8201 109.04H49.8001L49.1401 112.08L47.0601 120H44.5201ZM73.6137 106.8V120H71.4737V106.8H73.6137ZM87.5284 120V106.8H97.0884V108.64H89.6684V112.44H95.4684V114.24H89.6684V118.16H97.3684V120H97.3884C96.415 120.373 95.735 120.74 95.3484 121.1C94.9617 121.46 94.7684 121.82 94.7684 122.18C94.7684 122.5 94.8817 122.747 95.1084 122.92C95.335 123.107 95.635 123.2 96.0084 123.2C96.1684 123.2 96.3417 123.18 96.5284 123.14C96.7284 123.113 96.9017 123.053 97.0484 122.96L97.4084 124.18C97.195 124.313 96.9284 124.407 96.6084 124.46C96.3017 124.527 95.9817 124.56 95.6484 124.56C94.915 124.56 94.315 124.373 93.8484 124C93.3817 123.64 93.1484 123.147 93.1484 122.52C93.1484 121.933 93.315 121.44 93.6484 121.04C93.995 120.653 94.4884 120.307 95.1284 120H87.5284ZM120.949 116.5C120.549 117.7 119.862 118.62 118.889 119.26C117.915 119.887 116.782 120.2 115.489 120.2C114.209 120.2 113.102 119.927 112.169 119.38C111.249 118.833 110.535 118.053 110.029 117.04C109.522 116.013 109.269 114.8 109.269 113.4C109.269 112 109.522 110.793 110.029 109.78C110.535 108.753 111.249 107.967 112.169 107.42C113.102 106.873 114.202 106.6 115.469 106.6C116.775 106.6 117.882 106.873 118.789 107.42C119.695 107.967 120.349 108.773 120.749 109.84L118.729 110.74C118.222 109.22 117.175 108.46 115.589 108.46C114.349 108.46 113.355 108.893 112.609 109.76C111.875 110.613 111.509 111.827 111.509 113.4C111.509 114.96 111.862 116.173 112.569 117.04C113.275 117.907 114.262 118.34 115.529 118.34C116.342 118.34 117.042 118.133 117.629 117.72C118.229 117.293 118.655 116.66 118.909 115.82L120.949 116.5ZM133.681 120V106.8H143.241V108.64H135.821V112.44H141.621V114.24H135.821V118.16H143.521V120H133.681ZM164.139 106.8V115.32C164.139 116.853 163.713 118.053 162.859 118.92C162.019 119.773 160.846 120.2 159.339 120.2C157.726 120.2 156.559 119.76 155.839 118.88C155.119 118 154.886 116.833 155.139 115.38L157.199 115C157.039 116.147 157.126 116.993 157.459 117.54C157.793 118.073 158.419 118.34 159.339 118.34C160.339 118.34 161.026 118.053 161.399 117.48C161.786 116.907 161.979 116.053 161.979 114.92V106.8H164.139Z" fill="white"/>
</svg>
